<svg xmlns="http://www.w3.org/2000/svg" viewBox="0 0 300 200" width="300" height="200">
  <!-- Background -->
  <rect width="300" height="200" fill="#212529" rx="10" ry="10" />
  
  <!-- Real estate map and listings representation -->
  <rect x="50" y="60" width="120" height="100" fill="#0d6efd" opacity="0.1" rx="5" ry="5" stroke="#0d6efd" stroke-width="1" />
  
  <!-- Map elements -->
  <circle cx="80" cy="90" r="5" fill="#dc3545" />
  <circle cx="110" cy="110" r="5" fill="#dc3545" />
  <circle cx="130" cy="80" r="5" fill="#dc3545" />
  <circle cx="75" cy="130" r="5" fill="#dc3545" />
  
  <!-- Map roads/lines -->
  <path d="M60,70 L160,70 M60,100 L160,100 M60,130 L160,130 M60,70 L60,150 M100,70 L100,150 M140,70 L140,150" 
        stroke="#6c757d" stroke-width="1" opacity="0.5" />
  
  <!-- Property listings -->
  <rect x="180" y="60" width="70" height="25" fill="#6c757d" opacity="0.2" rx="3" ry="3" />
  <rect x="180" y="95" width="70" height="25" fill="#6c757d" opacity="0.2" rx="3" ry="3" />
  <rect x="180" y="130" width="70" height="25" fill="#6c757d" opacity="0.2" rx="3" ry="3" />
  
  <!-- House icons on listings -->
  <path d="M190,72 L200,65 L210,72 L210,80 L190,80 Z" fill="#0dcaf0" />
  <rect x="195" y="80" width="10" height="5" fill="#0dcaf0" />
  
  <path d="M190,107 L200,100 L210,107 L210,115 L190,115 Z" fill="#0dcaf0" />
  <rect x="195" y="115" width="10" height="5" fill="#0dcaf0" />
  
  <path d="M190,142 L200,135 L210,142 L210,150 L190,150 Z" fill="#0dcaf0" />
  <rect x="195" y="150" width="10" height="5" fill="#0dcaf0" />
  
  <!-- Project title -->
  <text x="150" y="40" font-family="Arial, sans-serif" font-size="18" fill="#f8f9fa" text-anchor="middle" font-weight="bold">Real Estate Portal</text>
</svg>
